<?xml version="1.0" encoding="utf-8"?>
<!-- Generator: Adobe Illustrator 16.0.0, SVG Export Plug-In . SVG Version: 6.00 Build 0)  -->
<!DOCTYPE svg PUBLIC "-//W3C//DTD SVG 1.1//EN" "http://www.w3.org/Graphics/SVG/1.1/DTD/svg11.dtd">
<svg version="1.1" xmlns="http://www.w3.org/2000/svg" xmlns:xlink="http://www.w3.org/1999/xlink" x="0px" y="0px" width="44px"
	 height="44px" viewBox="0 0 44 44" enable-background="new 0 0 44 44" xml:space="preserve" id="icon-linkedin">
	<g>
		<path id="bg-linkedin" fill-rule="evenodd" clip-rule="evenodd" fill="#3F4D5F" d="M22,0C9.8,0,0,2.3,0,22c0,19.7,9.8,22,22,22
			s22-2.3,22-22C44,2.3,34.2,0,22,0z"/>
		<g id="fg-linkedin">
			<rect x="13" y="18" fill-rule="evenodd" clip-rule="evenodd" fill="#FFFFFF" width="4" height="12"/>
			<path fill-rule="evenodd" clip-rule="evenodd" fill="#FFFFFF" d="M15,12c-2,0-2,1-2,2.1c0,1.2,0,1.9,2,1.9s2-0.8,2-2
				C17,12.8,17,12,15,12z"/>
			<path fill-rule="evenodd" clip-rule="evenodd" fill="#FFFFFF" d="M26.6,17.6c-2.1,0-3.1,1.2-3.6,2l0-1.6h-4c0.1,1.1,0,12,0,12h4
				v-6.8c0-0.4,0-0.7,0.1-1c0.3-0.7,1-1.5,2.1-1.5c1.5,0,1.8,1.6,1.8,3.2v6h4v-7C31,19.3,29.3,17.6,26.6,17.6z"/>
		</g>
	</g>
</svg>
