<?xml version="1.0" encoding="utf-8"?>
<!-- Generator: Adobe Illustrator 16.0.0, SVG Export Plug-In . SVG Version: 6.00 Build 0)  -->
<!DOCTYPE svg PUBLIC "-//W3C//DTD SVG 1.1//EN" "http://www.w3.org/Graphics/SVG/1.1/DTD/svg11.dtd">
<svg version="1.1" xmlns="http://www.w3.org/2000/svg" xmlns:xlink="http://www.w3.org/1999/xlink" x="0px" y="0px" width="44px"
	 height="44px" viewBox="0 0 44 44" enable-background="new 0 0 44 44" xml:space="preserve" id="icon-twitter">
  <g>
  	<path id="bg-twitter" fill="#3F4D5F" d="M22,0C9.8,0,0,2.3,0,22c0,19.7,9.8,22,22,22s22-2.3,22-22C44,2.3,34.2,0,22,0z"/>
  	<path id="fg-twitter" fill="#FFFFFF" d="M31.4,14c-0.8,0.5-1.7,0.8-2.7,1c-0.8-0.8-1.9-1.3-3.1-1.3c-2.3,0-4.2,1.9-4.2,4.2
  		c0,0.3,0,0.7,0.1,1c-3.5-0.2-6.6-1.9-8.7-4.4c-0.4,0.6-0.6,1.3-0.6,2.1c0,1.5,0.7,2.7,1.9,3.5c-0.7,0-1.3-0.2-1.9-0.5
  		c0,0,0,0,0,0.1c0,2,1.5,3.7,3.4,4.1c-0.4,0.1-0.7,0.1-1.1,0.1c-0.3,0-0.5,0-0.8-0.1c0.5,1.7,2.1,2.9,3.9,2.9
  		c-1.4,1.1-3.3,1.8-5.2,1.8c-0.3,0-0.7,0-1-0.1c1.9,1.2,4.1,1.9,6.4,1.9c7.7,0,12-6.4,12-12c0-0.2,0-0.4,0-0.5
  		c0.8-0.6,1.5-1.3,2.1-2.2c-0.8,0.3-1.6,0.6-2.4,0.7C30.5,15.8,31.1,15,31.4,14z"/>
  </g>
</svg>
