<svg id="logo" xmlns="http://www.w3.org/2000/svg" width="75" height="75" viewBox="0 0 75 75"><path fill="#243040" d="M28.9 45.2c.8.4 1.8.7 3 1 1.3.2 2.9.4 4.8.4 2.1 0 3.8-.1 5.2-.4 1.3-.3 2.4-.6 3.2-1.1.8-.4 1.4-1 1.7-1.6.3-.6.5-1.3.5-2 0-.8-.2-1.4-.7-1.9-.5-.5-1.1-.9-2-1.1s-1.8-.5-2.9-.6c-1.1-.1-2.3-.2-3.6-.2-1.3 0-2.6 0-4 0-1.4 0-2.7-.1-4.1-.4-.9.6-1.6 1.3-2.2 2.1-.6.8-.9 1.6-.9 2.6 0 .7.1 1.3.4 1.9C27.6 44.3 28.2 44.8 28.9 45.2zM33.4 12.4c.9.3 1.9.5 3.1.5 2.4 0 4.1-.6 5.2-1.8 1.1-1.2 1.6-2.8 1.6-4.7 0-2-.5-3.5-1.6-4.6S38.9 0 36.5 0c-2.4 0-4.1.7-5.2 1.8s-1.6 2.7-1.6 4.6c0 .9.1 1.8.4 2.6.3.8.7 1.5 1.2 2C31.8 11.6 32.5 12.1 33.4 12.4z"/><path fill="#243040" d="M56.1,4.9c0,0.4,0,0.8,0,1.2c0,2.4-0.5,4.6-1.5,6.6c-1,1.9-2.4,3.6-4.2,4.9s-3.9,2.4-6.3,3.1 c-2.4,0.7-5,1.1-7.7,1.1c-1.5,0-3-0.1-4.3-0.3c-1.1,0.6-1.6,1.4-1.6,2.2s0.4,1.4,1.3,1.8c0.9,0.4,2,0.6,3.4,0.8 c1.4,0.1,3,0.2,4.8,0.2c1.8,0,3.7,0.1,5.5,0.3s3.7,0.5,5.5,0.9c1.8,0.4,3.4,1.1,4.8,2c1.4,0.9,2.5,2.1,3.4,3.6 c0.9,1.5,1.3,3.5,1.3,5.8c0,2.2-0.5,4.3-1.6,6.4c-1.1,2.1-2.6,4-4.7,5.6c-2.1,1.6-4.6,2.9-7.6,3.9s-6.4,1.5-10.3,1.5 c-3.8,0-7.1-0.4-9.9-1.1c-2.8-0.7-5.1-1.7-6.9-2.8c-1.8-1.2-3.2-2.5-4.1-4.1c-0.9-1.5-1.3-3.1-1.3-4.8c0-2.2,0.7-4,2-5.5 c1.3-1.5,3.1-2.7,5.4-3.5c-1.1-0.7-2-1.6-2.6-2.8s-1-2.5-1-4.3c0-0.7,0.1-1.5,0.4-2.3c0.2-0.8,0.6-1.6,1.2-2.3 c0.5-0.7,1.2-1.5,2-2.2c0.8-0.7,1.8-1.3,2.9-1.8c-2.5-1.3-4.5-3.1-6-5.3c-1.4-2.1-2.1-4.6-2.2-7.3C6.5,13.2,0,24.6,0,37.5 C0,58.2,16.8,75,37.5,75C58.2,75,75,58.2,75,37.5C75,23.6,67.4,11.4,56.1,4.9z"/></svg>