<svg xmlns="http://www.w3.org/2000/svg" width="44" height="44" viewBox="0 0 44 44" class="icon-linkedin"><path class="bg-linkedin" fill-rule="evenodd" clip-rule="evenodd" fill="#3F4D5F" d="M22,0C9.8,0,0,2.3,0,22c0,19.7,9.8,22,22,22 s22-2.3,22-22C44,2.3,34.2,0,22,0z"/><g class="fg-linkedin" fill-rule="evenodd" clip-rule="evenodd" fill="#FFF"><path d="M13 18H17V30H13zM15 12c-2 0-2 1-2 2.1 0 1.2 0 1.9 2 1.9s2-.8 2-2C17 12.8 17 12 15 12zM26.6 17.6c-2.1 0-3.1 1.2-3.6 2l0-1.6h-4c.1 1.1 0 12 0 12h4v-6.8c0-.4 0-.7.1-1 .3-.7 1-1.5 2.1-1.5 1.5 0 1.8 1.6 1.8 3.2v6h4v-7C31 19.3 29.3 17.6 26.6 17.6z"/></g></svg>