<svg xmlns="http://www.w3.org/2000/svg" width="44" height="44" viewBox="0 0 44 44" class="icon-mail"><path class="bg-mail" fill="#3F4D5F" d="M22,0C9.8,0,0,2.3,0,22c0,19.7,9.8,22,22,22s22-2.3,22-22C44,2.3,34.2,0,22,0z"/><path class="fg-mail" fill-rule="evenodd" clip-rule="evenodd" fill="#FFF" d="M10,28.8c0,1.1,0.9,2,2,2h20c1.1,0,2-0.9,2-2V15.2 c0-1.1-0.9-2-2-2H12c-1.1,0-2,0.9-2,2V28.8z M17.4,22l-4.6-4.6c-0.4-0.4-0.4-1,0-1.4s1-0.4,1.4,0l7.3,7.3c0.3,0.3,0.8,0.3,1.1,0 l7.3-7.3c0.4-0.4,1-0.4,1.4,0s0.4,1,0,1.4L26.6,22l4.6,4.6c0.4,0.4,0.4,1,0,1.4s-1,0.4-1.4,0l-4.6-4.6c0,0-1.4,1.5-1.7,1.7 c-0.4,0.4-1,0.6-1.6,0.6c-0.6,0-1.2-0.2-1.6-0.7c-0.3-0.3-1.7-1.7-1.7-1.7L14.2,28c-0.4,0.4-1,0.4-1.4,0s-0.4-1,0-1.4L17.4,22z"/></svg>